<?xml version="1.0" standalone="no"?>
<!DOCTYPE svg PUBLIC "-//W3C//DTD SVG 20010904//EN"
 "http://www.w3.org/TR/2001/REC-SVG-20010904/DTD/svg10.dtd">
<svg version="1.0" xmlns="http://www.w3.org/2000/svg"
 width="1280.000000pt" height="1062.000000pt" viewBox="0 0 1280.000000 1062.000000"
 preserveAspectRatio="xMidYMid meet">
<metadata>
Created by potrace 1.15, written by Peter Selinger 2001-2017
</metadata>
<g transform="translate(0.000000,1062.000000) scale(0.100000,-0.100000)"
fill="#000000" stroke="none">
<path d="M8005 10614 c-783 -46 -1372 -198 -1992 -513 -827 -420 -1646 -1149
-2527 -2251 -474 -592 -825 -1083 -1484 -2075 -461 -694 -561 -841 -750 -1100
-359 -490 -694 -894 -1066 -1285 l-185 -195 -1 -1597 0 -1598 6400 0 6400 0 0
1600 c0 880 -2 1600 -5 1600 -3 0 -43 -35 -88 -77 -695 -652 -1471 -1077
-2253 -1232 -246 -49 -379 -63 -660 -68 -360 -7 -651 21 -985 97 -649 148
-1359 465 -1845 825 -1038 770 -1437 1913 -1138 3259 70 314 172 615 289 855
137 280 283 488 480 687 329 331 717 526 1195 600 154 24 476 24 649 0 492
-67 1042 -278 1391 -534 160 -118 291 -254 372 -388 160 -263 167 -555 19
-859 -97 -200 -272 -405 -523 -612 -319 -265 -444 -327 -502 -250 -32 43 -27
199 13 457 29 178 32 223 28 340 -3 108 -9 147 -26 192 -68 178 -212 268 -471
299 -142 16 -360 7 -465 -20 -303 -78 -483 -290 -586 -689 -81 -314 -120 -771
-89 -1047 80 -716 505 -1087 1373 -1199 309 -40 799 -45 1082 -11 794 95 1366
398 1756 928 294 398 464 892 539 1562 18 155 24 737 11 942 -89 1344 -604
2277 -1556 2818 -506 287 -1099 451 -1885 521 -154 14 -782 26 -915 18z"/>
</g>
</svg>
